<svg xmlns="http://www.w3.org/2000/svg" width="36" height="38" viewBox="0 0 36 38">
    <path data-name="패스 739" d="M.705 38a.692.692 0 0 1-.7-.741l.024-.359c.348-3.525 1.578-7.147 5.489-8.155l.67-.138.006-.1a30.96 30.96 0 0 0 .614-14.2.613.613 0 0 1 .011-.271L6.838 14l-.063-.255a12.749 12.749 0 0 1 .953-7.378l.026-.052A11.816 11.816 0 0 1 17.713.021c3.613-.213 7.044 1.21 6.939 3.937l.8.845c2.66 3.043 3.165 5.933 2.294 8.669l-.3.813.02.085c.067 5.858.637 10.992 3.042 14.192l.1.222.619.2c3.325 1.271 4.419 4.692 4.74 7.919l.026.361a.7.7 0 0 1-.707.741zm11.514-1.372.34-1.987-3.815-1.921a.681.681 0 0 1-.308-.918l1.386-2.686-.326.129a15.769 15.769 0 0 1-2.943.687C3.461 30.4 2.139 32.72 1.62 35.7l-.128.927zm4.778 0-5.121-8.41-1.855 3.594 3.647 1.842a.672.672 0 0 1 .374.716l-.384 2.258zm5.149 0-.381-2.258a.676.676 0 0 1 .374-.716l3.647-1.842L23.92 28.2l-.076-.259-4.753 8.69zm12.355 0-.121-.907c-.515-2.95-1.833-5.318-4.932-5.789a15.717 15.717 0 0 1-2.946-.687l-.571-.223L27.37 31.8a.679.679 0 0 1-.306.918l-3.812 1.921.334 1.987zm-16.466-1 3.571-6.531-.5.241a8.858 8.858 0 0 1-6.821.082l-.045-.02zm-.393-6.938a7.824 7.824 0 0 0 4.925-1.846l.282-.261-.238-.334a10.676 10.676 0 0 1-.685-1.21l-.477-1.108-.391.264a6.2 6.2 0 0 1-3.325.928 6.6 6.6 0 0 1-2.845-.7l-.424-.249-.147.359a10.788 10.788 0 0 1-1.306 2.249l-.119.138.1.1a7 7 0 0 0 4.648 1.668m11.078-.288-.068-.1c-1.524-2.607-2.172-5.991-2.435-9.647l-.108-1.983-.011.013a14.81 14.81 0 0 1-.585.78l-.435.524-.179.7a10.789 10.789 0 0 1-1.973 3.858l-.381.425.1.153c1.2 3.188 2.612 4.506 5.63 5.189zm-21-.079h.014a6.543 6.543 0 0 0 5.1-3.935l.442-1.044-.15-.114a11.222 11.222 0 0 1-2.29-2.842l-.619-1.205a9.885 9.885 0 0 1-1.172-1.061l-.4-.467.032.4a30.81 30.81 0 0 1-.775 9.571zm10.038-4.578c2.307.03 4.688-1.683 5.777-5.418l.1-.406-.009-.051v-.141a13.807 13.807 0 0 0-.579-6.423 5.863 5.863 0 0 0-3.057-3.248l-.4-.162-.5.219c-2.361 1.008-4.793 2.08-5.913 4.32a11.936 11.936 0 0 0-1.238 6.577.68.68 0 0 1-.042.3l-.028.037.19.371c1.618 2.773 3.767 4 5.686 4.024m-7.259-6.156.014-.521a12.628 12.628 0 0 1 1.4-5.243c1.191-2.374 3.462-3.612 5.683-4.585l1.6-.678.065-.046.1-.019.654-.285a7.275 7.275 0 0 0 2.955-1.98l.266-.457-.009-.135C23 2.3 20.819 1.211 17.8 1.393a10.469 10.469 0 0 0-8.4 4.853l-.363.654-.39 1.06c-1.4 4.274-.374 7.311 1.476 9.269zm14.666-2.012.3-.448c1.84-3.028 1.906-6.146-1.255-9.635l-.244-.253-.241.262a7.975 7.975 0 0 1-2.061 1.454l-.418.205.135.07a7.234 7.234 0 0 1 3 3.579 12.146 12.146 0 0 1 .781 4.166z" style="fill:#022261"/>
</svg>
