<svg xmlns="http://www.w3.org/2000/svg" width="36" height="38" viewBox="0 0 36 38">
    <path data-name="패스 740" d="M.784 38A.766.766 0 0 1 0 37.216c.406-7.5 2.958-12.163 7.8-13.561l.909-.215.827-.314a5.515 5.515 0 0 0 3.417-3.843l-.571-.46c-.26-.227-.516-.456-.766-.7l-.063-.068a8.742 8.742 0 0 1-1.692-3.788l-.661-3.32c-.622-3.008-.529-5.282.239-6.929A5.209 5.209 0 0 1 12.848 1.2l.514-.131.569-.33A7.133 7.133 0 0 1 17.5.006l1.326.129c3.113.141 5.456 1.108 6.8 3.046 1.326 1.9 1.556 4.56.933 7.8l-.011.036-.837 3.352-.008.034a12.387 12.387 0 0 1-2.015 4.3l-.066.068-.565.531.364.736a7.433 7.433 0 0 0 6.105 3.851.762.762 0 0 1 .19.04c4.629 1.653 6.016 7.042 6.281 13.3a.767.767 0 0 1-.782.776zm4.454-1.492-.482-9.234-.186.2c-1.537 1.808-2.527 4.565-2.9 8.407l-.051.629zm9.918 0 2.022-7.792-1.566-1.216-.478.332a.816.816 0 0 1-1.125-.2l-2.563-3.812-.541.33a10.582 10.582 0 0 1-1.694.712.572.572 0 0 1-.1.024 7.854 7.854 0 0 0-2.821 1.088l-.027.018.55 10.522zm4.016 0-1.164-4.748-1.237 4.747zm9.956 0 .554-10.593a.581.581 0 0 1 .078-.286l.025-.038-.573-.245-1.248-.2a9.4 9.4 0 0 1-2.747-1.084l-.571-.39-2.508 3.975a.812.812 0 0 1-1.117.229l-.6-.4-1.554 1.235 1.924 7.792zm5.266 0-.027-.392c-.294-4.329-1.21-7.609-3.09-9.463l-.059-.05-.518 9.905zm-16.37-9.065 1.053-.839-1.136-.742-1.024.718zm3.2-1.247 2.022-3.2-.493.352A9.91 9.91 0 0 1 19.78 24.6l-.844.1zm-6.346-.044 2.113-1.474-.277-.022a8.632 8.632 0 0 1-3-1.243l-.916-.694-.137.133zm3.339-2.852a7.319 7.319 0 0 0 3.682-1.2l.694-.493-.1-.129q-.276-.4-.518-.841l-.18-.366-.271.183a6.47 6.47 0 0 1-3.4.971 7.26 7.26 0 0 1-3.345-.929l-.479-.286-.116.352c-.078.2-.163.386-.252.569l-.22.38.869.664a6.43 6.43 0 0 0 3.637 1.12m-.1-3.368a5.542 5.542 0 0 0 3.7-1.55l.637-.593.6-.9a10.568 10.568 0 0 0 .837-1.9l.297-.984.827-3.308L25.2 9.6a13.934 13.934 0 0 0 .125-1.753V7.78l-1.406.245a15.855 15.855 0 0 1-5.3 0 7.68 7.68 0 0 1-3.553-1.691l-.044-.034-.167.275a8.676 8.676 0 0 1-3.7 2.9.857.857 0 0 1-.3.068l-.309-.076.021.165q.073.492.184 1.036l.662 3.3a8.3 8.3 0 0 0 .933 2.513l.44.619.586.537a8.338 8.338 0 0 0 4.189 2.25 4.024 4.024 0 0 0 .563.04M10.4 8.18l.085-.06a5.933 5.933 0 0 0 3.512-3.342.8.8 0 0 1 1.356-.3 6.241 6.241 0 0 0 3.6 2.085 15.889 15.889 0 0 0 5.794-.185l.461-.088-.131-.633a5.3 5.3 0 0 0-.749-1.655c-.973-1.4-2.743-2.252-5.576-2.379l-.085-.01a6.012 6.012 0 0 0-4.534.752l-.285.121a3.844 3.844 0 0 0-2.967 2.135 6.941 6.941 0 0 0-.5 3.185z" style="fill:#022261"/>
</svg>
