<svg xmlns="http://www.w3.org/2000/svg" width="62" height="49" viewBox="0 0 62 49">
    <defs>
        <clipPath id="kmg358ex5a">
            <path data-name="사각형 48" transform="translate(0 -.433)" style="stroke:#022261;fill:#022261;stroke-width:.3px" d="M0 0h62v49H0z"/>
        </clipPath>
    </defs>
    <g data-name="그룹 329" transform="translate(0 .434)" style="clip-path:url(#kmg358ex5a)">
        <path data-name="패스 880" d="M29.685 49.835a3.346 3.346 0 0 0-1.863.564v-5.677a5.866 5.866 0 0 0-5.885-5.833H11.1a5.866 5.866 0 0 0-5.89 5.833V50.4A3.35 3.35 0 0 0 0 53.152v9.779a4.782 4.782 0 0 0 1.964 3.845L1.919 72.8a.7.7 0 0 0 .207.5.715.715 0 0 0 .505.209h2.575a.712.712 0 0 0 .662-.447l2.122-5.321h17.052l2.122 5.321a.711.711 0 0 0 .662.447H30.4a.716.716 0 0 0 .505-.209.7.7 0 0 0 .207-.5l-.046-6.028a4.783 4.783 0 0 0 1.964-3.845v-9.775a3.334 3.334 0 0 0-3.345-3.317M11.1 40.3h10.837a4.445 4.445 0 0 1 4.46 4.421v7.857a3.3 3.3 0 0 0-.058.573v7.583H6.692v-7.582a3.256 3.256 0 0 0-.057-.559v-7.871A4.446 4.446 0 0 1 11.1 40.3M4.722 72.1H3.35l.034-4.6a4.834 4.834 0 0 0 1.474.251h1.6zm24.96 0H28.31l-1.737-4.356h1.6a4.837 4.837 0 0 0 1.475-.251zm1.923-9.172a3.423 3.423 0 0 1-3.433 3.4H4.858a3.423 3.423 0 0 1-3.433-3.4v-9.776a1.916 1.916 0 0 1 1.922-1.9 1.893 1.893 0 0 1 1.863 1.62v.28h.057v8.29a.709.709 0 0 0 .712.706h21.072a.709.709 0 0 0 .712-.706v-8.29h.059v-.286a1.894 1.894 0 0 1 1.863-1.618 1.914 1.914 0 0 1 1.92 1.9z" transform="translate(3.125 -27.013)" style="stroke:#022261;fill:#022261;stroke-width:.3px"/>
    </g>
    <path data-name="선 14" transform="translate(16.533 22.739)" style="stroke-width:1.5px;stroke-linecap:round;fill:none;stroke:#022261" d="M0 0h6.2"/>
    <path data-name="패스 879" d="M.266 0h10.762l2.266 13.778H-2z" transform="translate(46.273 3.534)" style="stroke-width:1.6px;stroke-linejoin:round;stroke-linecap:round;fill:none;stroke:#022261"/>
    <path data-name="선 10" transform="translate(51.92 16.737)" style="stroke-width:1.7px;fill:none;stroke:#022261" d="m0 0 .103 28.615"/>
    <path data-name="선 13" transform="translate(56.622 17.392)" style="stroke-width:1.6px;stroke-linecap:round;fill:none;stroke:#022261" d="M0 0v4.133"/>
    <path data-name="선 15" transform="translate(56.622 24.626)" style="stroke-width:1.6px;stroke-linecap:round;fill:none;stroke:#022261" d="M0 0v1.033"/>
    <path data-name="선 11" transform="translate(46.822 45.455)" style="stroke-width:1.6px;stroke-linecap:round;fill:none;stroke:#022261" d="M0 0h10.196"/>
    <path data-name="선 12" transform="translate(46.185 6.634)" style="stroke-width:1.6px;stroke-linecap:round;fill:none;stroke:#022261" d="M0 0h11.47"/>
</svg>
