<svg xmlns="http://www.w3.org/2000/svg" width="20" height="23" viewBox="0 0 20 23">
    <defs>
        <clipPath id="kbwb0x5e4a">
            <path data-name="사각형 6" transform="translate(-1 -2)" style="fill:transparent" d="M0 0h20v23H0z"/>
        </clipPath>
    </defs>
    <g data-name="그룹 53" transform="translate(1 2)" style="clip-path:url(#kbwb0x5e4a)">
        <path data-name="패스 125" d="M14.323 20a.491.491 0 0 1-.252-.069.469.469 0 0 1-.233-.4V-.527a.47.47 0 0 1 .234-.4.5.5 0 0 1 .476-.015l6.083 4.082a.47.47 0 0 1 .261.419v12.909a.47.47 0 0 1-.262.42l-6.083 3.06a.5.5 0 0 1-.224.052M14.809.252v18.5l5.112-2.571V3.842z" transform="translate(-3.892)" style="fill:#022261;stroke:#022261;stroke-width:.2px"/>
        <path data-name="패스 126" d="M17.026 17.31a.48.48 0 0 1-.486-.473v-.855a.486.486 0 0 1 .972 0v.855a.48.48 0 0 1-.486.473" transform="translate(-4.652 -4.667)" style="fill:#022261;stroke:#022261;stroke-width:.2px"/>
        <path data-name="패스 127" d="M13.272 18.805H6.053a.537.537 0 0 1-.583-.473v-4.106a.537.537 0 0 1 .583-.473.537.537 0 0 1 .583.473v3.634h6.636a.483.483 0 1 1 0 .945M6.053 8.109a.537.537 0 0 1-.583-.473V3.53a.537.537 0 0 1 .583-.473h7.219a.537.537 0 0 1 .583.473.537.537 0 0 1-.583.47H6.636v3.636a.537.537 0 0 1-.583.473" transform="translate(-2.939 -.92)" style="fill:#022261;stroke:#022261;stroke-width:.2px"/>
        <path data-name="패스 128" d="M8.724 17.042a.491.491 0 0 1-.344-.142.464.464 0 0 1 0-.668l2.52-2.449a.5.5 0 0 1 .687 0 .464.464 0 0 1 0 .668L9.067 16.9a.491.491 0 0 1-.344.138" transform="translate(-3.317 -4.106)" style="fill:#022261;stroke:#022261;stroke-width:.2px"/>
        <path data-name="패스 129" d="M11.244 13.524a.492.492 0 0 1-.345-.14l-2.521-2.475a.463.463 0 0 1 0-.668.5.5 0 0 1 .686 0l2.521 2.475a.463.463 0 0 1 0 .668.491.491 0 0 1-.342.137" transform="translate(-3.317 -3.04)" style="fill:#022261;stroke:#022261;stroke-width:.2px"/>
        <path data-name="패스 130" d="M8.927 14.589H1.485a.472.472 0 1 1 0-.944h7.442a.472.472 0 1 1 0 .944" transform="translate(-1 -4.106)" style="fill:#022261;stroke:#022261;stroke-width:.2px"/>
    </g>
</svg>
