<svg xmlns="http://www.w3.org/2000/svg" width="38" height="28" viewBox="0 0 38 28">
    <defs>
        <clipPath id="93a3gxmwaa">
            <path data-name="사각형 53" transform="translate(-1 -1)" style="fill:#022261" d="M0 0h38v28H0z"/>
        </clipPath>
    </defs>
    <path data-name="패스 911" d="m4.516 1.531 28.938-.062a4.188 4.188 0 0 1 2.094 1.094 4.728 4.728 0 0 1 .969 2.219l-.406 13.844a4.911 4.911 0 0 1-1.281 2.641 6.465 6.465 0 0 1-2.594.859 2.081 2.081 0 0 0-1.094.563 2.8 2.8 0 0 0-.516 1.25l.063 1.7s-.176.641-.609.781a1.9 1.9 0 0 1-1.125-.219 40.514 40.514 0 0 0-4.594-2.594c-.547-.047-14.844 2.641-14.844 2.641a4.01 4.01 0 0 1-2.047-.625 3.587 3.587 0 0 1-1.22-1.685L1.516 5.109A4.6 4.6 0 0 1 2.3 2.781a4.7 4.7 0 0 1 2.216-1.25z" style="fill:transparent"/>
    <g data-name="그룹 345" transform="translate(1 1)" style="clip-path:url(#93a3gxmwaa)">
        <path data-name="패스 907" d="M28.74 26a1.481 1.481 0 0 1-.747-.2l-4.219-2.471a1.342 1.342 0 0 0-.92-.162L9.136 25.672a3.927 3.927 0 0 1-2.817-.548 3.812 3.812 0 0 1-1.664-2.293L.116 4.781a3.742 3.742 0 0 1 .591-3.11A3.87 3.87 0 0 1 3.4.077l.063.486L3.4.077a4.028 4.028 0 0 1 .474-.028L31.49 0h.625a3.912 3.912 0 0 1 1.567.323 3.868 3.868 0 0 1 1.7 1.435A3.742 3.742 0 0 1 36 3.937l-.009.329-.091 2.788-.329 10.728a3.79 3.79 0 0 1-.929 2.365 3.9 3.9 0 0 1-2.239 1.271l-1.13.206a1.281 1.281 0 0 0-1.064 1.222l-.027 1.777a1.375 1.375 0 0 1-.744 1.2 1.49 1.49 0 0 1-.7.177M23.1 22.164a2.373 2.373 0 0 1 1.2.325l4.219 2.471a.438.438 0 0 0 .433.007.41.41 0 0 0 .223-.358l.027-1.777a2.2 2.2 0 0 1 .544-1.409 2.343 2.343 0 0 1 1.343-.76l1.131-.206a2.862 2.862 0 0 0 2.344-2.7l.328-10.728.085-2.788.01-.329a2.83 2.83 0 0 0-1.719-2.692 2.876 2.876 0 0 0-1.153-.241h-.623l-27.616.048a2.907 2.907 0 0 0-.35.021 2.87 2.87 0 0 0-1.987 1.179A2.812 2.812 0 0 0 1.1 4.55L5.64 22.6a2.873 2.873 0 0 0 2.787 2.157 2.84 2.84 0 0 0 .521-.047l13.718-2.51a2.419 2.419 0 0 1 .432-.039" style="stroke:#022261;stroke-width:.2px;fill:#022261"/>
        <path data-name="패스 908" d="M12.683 16.7h-1.66V8.722h5.635v1.414h-3.975v1.811h3.477v1.4h-3.477z" transform="translate(-1.55 -1.11)" style="fill:#022261"/>
        <path data-name="패스 909" d="M17.6 16.7h-1.74l2.875-7.975h1.909l2.834 7.975h-1.785l-.53-1.648h-3zm1.017-3.021h2.066l-1.007-3.154h-.031z" transform="translate(-1.569 -1.11)" style="fill:#022261"/>
        <path data-name="패스 910" d="m30.075 17.252-.955-.9a3.9 3.9 0 0 1-1.11.437 3.524 3.524 0 0 1-.852.111 3.735 3.735 0 0 1-2.242-.7 3.969 3.969 0 0 1-1.494-3.468 4 4 0 0 1 1.494-3.5 3.995 3.995 0 0 1 4.495 0 3.992 3.992 0 0 1 1.5 3.5 5.359 5.359 0 0 1-.239 1.648 3.815 3.815 0 0 1-.592 1.169l.861.8zM28.061 13.6l.831.794a3.176 3.176 0 0 0 .259-.733 3.785 3.785 0 0 0 .115-.935 3 3 0 0 0-.737-2.229 2 2 0 0 0-2.73 0 3.049 3.049 0 0 0-.726 2.229 2.963 2.963 0 0 0 .726 2.187 1.871 1.871 0 0 0 1.359.55 1.7 1.7 0 0 0 .405-.051 2.284 2.284 0 0 0 .446-.143l-.8-.763z" transform="translate(-1.6 -1.105)" style="fill:#022261"/>
    </g>
</svg>
