<svg xmlns="http://www.w3.org/2000/svg" width="69" height="75" viewBox="0 0 69 75">
    <defs>
        <clipPath id="nfwj6o3lya">
            <path data-name="사각형 33" style="fill:#022261" d="M0 0h58v21H0z"/>
        </clipPath>
    </defs>
    <g data-name="그룹 300">
        <g data-name="그룹 299" transform="translate(11 54)" style="clip-path:url(#nfwj6o3lya)">
            <path data-name="패스 794" d="M25.969 22a1 1 0 0 1-.95-.7L19.113 3.482a2.082 2.082 0 0 0-1.043-1.211 2.015 2.015 0 0 0-1.577-.111 2.122 2.122 0 0 0-1.3 2.674l1.012 3.054a12.084 12.084 0 0 1 .369 1.012 1.028 1.028 0 0 1-.633 1.283l-.1.033a.985.985 0 0 1-.766-.052 1.017 1.017 0 0 1-.506-.59l-1.501-4.552a.867.867 0 0 0-1.613-.109.9.9 0 0 0-.047.682l1.508 4.551a1.043 1.043 0 0 1-.052.782 1.01 1.01 0 0 1-.578.516l-.066.023a1 1 0 0 1-1.272-.643l-1.1-3.333a.868.868 0 0 0-1.613-.109.9.9 0 0 0-.047.682l1.1 3.333a1.043 1.043 0 0 1-.051.782 1.012 1.012 0 0 1-.578.516l-.067.022a1 1 0 0 1-1.272-.642l-.865-2.611a.879.879 0 0 0-.442-.513.857.857 0 0 0-.669-.051.9.9 0 0 0-.544 1.136l.866 2.613a1.029 1.029 0 0 1-.63 1.3l-.074.026a.985.985 0 0 1-.766-.052 1.016 1.016 0 0 1-.505-.59l-.643-1.937a.535.535 0 0 0-.269-.312.518.518 0 0 0-.4-.029.535.535 0 0 0-.305.274.55.55 0 0 0-.028.414L4.8 20.1a1.028 1.028 0 0 1-.629 1.3 1 1 0 0 1-1.271-.649L.134 12.4a2.62 2.62 0 0 1 .131-1.977 2.537 2.537 0 0 1 1.461-1.31 2.474 2.474 0 0 1 1.114-.118A2.918 2.918 0 0 1 4.7 6.964a2.8 2.8 0 0 1 1.567-.08 3.137 3.137 0 0 1 .163-.408 2.882 2.882 0 0 1 1.66-1.484 2.818 2.818 0 0 1 1.3-.13 3.008 3.008 0 0 1 .268-.856 2.882 2.882 0 0 1 1.658-1.484 2.823 2.823 0 0 1 2.063.086A4.1 4.1 0 0 1 15.85.219a3.974 3.974 0 0 1 3.11.216 4.1 4.1 0 0 1 2.055 2.391l5.9 17.821a1.028 1.028 0 0 1-.629 1.3.963.963 0 0 1-.321.055" style="fill:#022261"/>
            <path data-name="패스 795" d="M38.089 22a.963.963 0 0 1-.321-.055 1.028 1.028 0 0 1-.629-1.3l5.9-17.821A4.1 4.1 0 0 1 45.1.435a3.974 3.974 0 0 1 3.11-.216 4.106 4.106 0 0 1 2.474 2.389 2.816 2.816 0 0 1 2.062-.086 2.931 2.931 0 0 1 1.926 2.34 2.809 2.809 0 0 1 1.3.13 2.914 2.914 0 0 1 1.821 1.892 2.8 2.8 0 0 1 1.567.08 2.918 2.918 0 0 1 1.862 2.031 2.474 2.474 0 0 1 1.114.119 2.537 2.537 0 0 1 1.461 1.306 2.624 2.624 0 0 1 .131 1.977l-2.737 8.26a1 1 0 0 1-1.272.642 1.029 1.029 0 0 1-.63-1.3l2.737-8.26a.55.55 0 0 0-.028-.414.536.536 0 0 0-.3-.274.519.519 0 0 0-.406.029.535.535 0 0 0-.269.312l-.643 1.937a1.016 1.016 0 0 1-.505.59.985.985 0 0 1-.766.052l-.074-.026a1.009 1.009 0 0 1-.578-.516 1.043 1.043 0 0 1-.051-.782l.865-2.613a.9.9 0 0 0-.558-1.134.857.857 0 0 0-.668.048.879.879 0 0 0-.442.513l-.866 2.612a1 1 0 0 1-1.272.642L55.4 12.7a1.008 1.008 0 0 1-.578-.516 1.043 1.043 0 0 1-.051-.782l1.1-3.333a.9.9 0 0 0-.55-1.133.855.855 0 0 0-.668.047.883.883 0 0 0-.443.513l-1.1 3.333a1 1 0 0 1-1.272.643l-.066-.023a1.01 1.01 0 0 1-.578-.516 1.043 1.043 0 0 1-.051-.782L52.65 5.6a.9.9 0 0 0-.55-1.134.873.873 0 0 0-1.109.561l-1.508 4.547a1.017 1.017 0 0 1-.506.59.985.985 0 0 1-.766.052l-.095-.033a1.028 1.028 0 0 1-.635-1.283 11.316 11.316 0 0 1 .369-1.012l1.012-3.054a2.122 2.122 0 0 0-1.3-2.674 2.015 2.015 0 0 0-1.577.111 2.083 2.083 0 0 0-1.044 1.211L39.04 21.3a1 1 0 0 1-.95.7" transform="translate(-6.058)" style="fill:#022261"/>
        </g>
    </g>
    <g data-name="그룹 305">
        <path data-name="패스 796" d="m3.56 34.8-2.049 2.066.55.549H12.2l.548-.546-2.065-2.069z" transform="translate(-.598 -13.416)" style="opacity:.3;fill:#022261"/>
        <path data-name="패스 797" d="m12.753.754-2.067 2.067h-7.1L1.517.754l.547-.547H12.2z" transform="translate(-.6 -.082)" style="opacity:.3;fill:#022261"/>
        <path data-name="패스 798" d="M0 2.271v8.622L1.307 12.2l1.307-1.307v-7.1L.546 1.724z" transform="translate(0 -.682)" style="opacity:.3;fill:#022261"/>
        <path data-name="패스 799" d="M19.912 2.271V10.8L18.6 12.11l-.045.045-.892-.892-.369-.37V3.79l2.066-2.067z" transform="translate(-6.842 -.682)" style="opacity:.3;fill:#022261"/>
        <path data-name="패스 800" d="m12.446 18.768-.893.9-.447.45H4.08l-1.306-1.306.938-.938.369-.37h7.1l.369.37z" transform="translate(-1.097 -6.749)" style="opacity:.3;fill:#022261"/>
        <path data-name="패스 801" d="M0 21.585v8.622l.544.545 2.07-2.086v-7.08l-.37-.37-.937-.938z" transform="translate(0 -7.671)" style="opacity:.3;fill:#022261"/>
        <path data-name="패스 802" d="M19.912 21.556v8.622l-.548.547-2.064-2.066v-7.18l.29-.291.973-.982z" transform="translate(-6.842 -7.642)" style="opacity:.3;fill:#022261"/>
        <path data-name="패스 805" d="M95.548 3.791v7.1L94.241 12.2l-1.307-1.307V2.271l.546-.547z" transform="translate(-37.004 -.682)" style="opacity:.3;fill:#022261"/>
        <path data-name="패스 809" d="m110.521 21.187-.29.291v7.181l2.066 2.066.548-.547v-8.622l-1.351-1.351z" transform="translate(-43.846 -7.642)" style="opacity:.3;fill:#022261"/>
        <path data-name="패스 810" d="m31.428 34.8-2.048 2.066.549.549h10.142l.548-.546-2.067-2.069z" transform="translate(-11.696 -13.416)" style="opacity:.3;fill:#022261"/>
        <path data-name="패스 811" d="m40.621.754-2.067 2.067h-7.1L29.385.754l.547-.548h10.142z" transform="translate(-11.698 -.082)" style="opacity:.3;fill:#022261"/>
        <path data-name="패스 815" d="M30.482 21.586v7.081l-2.07 2.085-.544-.545v-8.621l1.307-1.306.937.937z" transform="translate(-11.085 -7.671)" style="opacity:.3;fill:#022261"/>
        <path data-name="패스 820" d="M75.912 2.064v8.525L74.6 11.9l-.045.045-.892-.892-.369-.37v-7.1l2.066-2.067z" transform="translate(-29.155 -.6)" style="opacity:.3;fill:#022261"/>
        <path data-name="패스 822" d="M58.614 21.379v7.081l-2.07 2.085L56 30v-8.622l1.307-1.306.937.937z" transform="translate(-22.275 -7.589)" style="opacity:.3;fill:#022261"/>
    </g>
    <path data-name="패스 803" d="m96.494 34.8-2.049 2.064.55.549h10.142l.548-.546-2.068-2.067z" transform="translate(-37.601 -13.416)" style="fill:#022261"/>
    <path data-name="패스 804" d="m105.687.754-2.067 2.067h-7.1L94.451.754 95 .207h10.141z" transform="translate(-37.604 -.082)" style="fill:#022261"/>
    <path data-name="패스 806" d="M110.232 3.791v7.1l.369.37.892.892.045-.045 1.306-1.315V2.271l-.548-.546z" transform="translate(-43.846 -.682)" style="fill:#022261"/>
    <path data-name="패스 807" d="m105.38 18.768-.893.9-.447.45h-7.025l-1.307-1.307.938-.938.369-.37h7.1l.37.37z" transform="translate(-38.101 -6.748)" style="fill:#022261"/>
    <path data-name="패스 808" d="M95.548 21.586v7.081l-2.07 2.085-.544-.545v-8.621l1.307-1.306.937.937z" transform="translate(-37.004 -7.671)" style="fill:#022261"/>
    <path data-name="패스 812" d="M30.482 3.791v7.1L29.175 12.2l-1.307-1.307V2.271l.546-.547z" transform="translate(-11.085 -.682)" style="fill:#022261"/>
    <path data-name="패스 813" d="M47.78 2.271V10.8l-1.307 1.31-.045.045-.892-.892-.369-.37V3.79l2.066-2.067z" transform="translate(-17.965 -.682)" style="fill:#022261"/>
    <path data-name="패스 814" d="m40.314 18.768-.893.9-.447.45h-7.025l-1.307-1.307.938-.938.369-.37h7.1l.369.37z" transform="translate(-12.196 -6.748)" style="fill:#022261"/>
    <path data-name="패스 816" d="M47.78 21.556v8.622l-.548.547-2.066-2.067v-7.18l.29-.291.973-.982z" transform="translate(-17.965 -7.642)" style="fill:#022261"/>
    <path data-name="패스 817" d="m59.56 34.6-2.048 2.064.55.549H68.2l.548-.546-2.065-2.067z" transform="translate(-22.895 -13.334)" style="fill:#022261"/>
    <path data-name="패스 818" d="m58.064 0-.547.547 2.067 2.067h7.1L68.752.547 68.205 0z" transform="translate(-22.897)" style="fill:#022261"/>
    <path data-name="패스 819" d="M58.614 3.584v7.1l-1.307 1.307L56 10.686V2.064l.546-.547z" transform="translate(-22.275 -.6)" style="fill:#022261"/>
    <path data-name="패스 821" d="m68.446 18.56-.893.9-.447.45H60.08l-1.306-1.31.938-.938.369-.37h7.1l.369.37z" transform="translate(-23.393 -6.668)" style="fill:#022261"/>
    <path data-name="패스 823" d="M75.912 21.349v8.622l-.548.547-2.064-2.066v-7.18l.29-.291.971-.981z" transform="translate(-29.155 -7.56)" style="fill:#022261"/>
    <path data-name="사각형 36" transform="translate(49.605 21.17)" style="fill:#022261" d="M0 0h2.716v2.716H0z"/>
</svg>
